<svg width="50" height="50" viewBox="0 0 50 50" fill="none" xmlns="http://www.w3.org/2000/svg">
<g clip-path="url(#clip0_41_41)">
<path d="M15.352 13.2563C19.9111 13.2563 24.1699 13.0927 28.4014 13.3109C31.1587 13.4473 33.2335 14.92 34.0798 17.7018C34.9261 20.4563 33.7795 22.5563 31.6228 24.3563C31.8139 24.52 31.9504 24.7109 32.1415 24.82C34.9807 26.4564 35.9362 28.3654 35.4994 31.4473C35.1445 33.9291 33.097 36.2473 30.1486 36.4382C25.3165 36.7382 20.4298 36.52 15.3793 36.52C15.3793 33.6836 15.3793 30.6836 15.3793 27.4927C10.4926 27.4927 5.82431 27.4927 1.21063 27.4927C-2.03807 18.2745 7.18931 4.80182 18.7372 1.61091C32.9878 -2.31636 45.1363 7.58363 47.5933 16.8018C46.1737 16.8018 44.7541 16.9654 43.4164 16.72C42.7339 16.5836 42.0241 15.82 41.6146 15.1654C37.6288 8.89273 32.0323 5.67453 24.5521 5.75633C15.2428 5.86543 7.27121 12.8473 5.96081 22.3109C9.04571 22.3109 12.1033 22.3109 15.3247 22.3109C15.352 19.3382 15.352 16.3654 15.352 13.2563ZM22.8322 26.9745C22.8322 25.4473 22.8322 24.0836 22.8322 22.72C24.2518 22.6382 25.5622 22.6927 26.818 22.5018C28.0192 22.3109 28.9747 21.6836 28.9474 20.2109C28.9474 18.7109 27.9646 18.0836 26.7361 18.0018C24.7432 17.8654 22.7503 17.9745 20.7028 17.9745C20.7028 22.7472 20.7028 27.3836 20.7028 32.1291C23.0779 32.1291 25.3438 32.2109 27.5824 32.1018C29.0293 32.0472 30.2578 31.3654 30.2851 29.7018C30.3124 28.1745 29.275 27.4382 27.8281 27.3018C26.1901 27.1654 24.5521 27.0836 22.8322 26.9745Z" fill="#2E3192"/>
<path d="M2.90334 34.5563C2.65764 33.9018 3.12174 33.1927 3.83154 33.1654C4.78702 33.1382 5.68792 33.1109 6.58882 33.2745C7.27132 33.3836 7.98112 34.12 8.36332 34.7745C14.3693 44.4018 26.4359 47.2109 35.7452 41.0745C40.1951 38.1291 42.8978 34.0927 44.0171 28.72C44.1536 28.0927 43.6895 27.4927 43.0343 27.4654C41.9696 27.4382 40.9595 27.6291 39.9767 27.4927C38.5025 27.3018 38.0384 26.9473 36.5369 25.8836C36.2366 25.6654 35.9909 25.3927 35.7725 25.0382C35.5268 24.6018 35.4449 24.2472 35.5268 23.7836C35.7179 22.6654 36.8099 22.4473 38.1203 22.5018C41.4509 22.6109 44.7815 22.5563 48.0848 22.5291C48.5489 22.5291 48.9584 22.8291 49.0676 23.2654C51.4154 32.3473 42.9797 44.9473 32.3054 48.1109C17.9729 52.3927 6.34312 43.5563 2.90334 34.5563Z" fill="#2E3192"/>
</g>
<defs>
<clipPath id="clip0_41_41">
<rect width="50" height="50" fill="white"/>
</clipPath>
</defs>
</svg>
