<svg width="176" height="175" viewBox="0 0 176 175" fill="none" xmlns="http://www.w3.org/2000/svg">
<path d="M104.354 93.7877C104.589 93.424 104.899 93.1141 105.262 92.8784C105.626 92.6426 106.035 92.4862 106.463 92.4195C106.891 92.3528 107.329 92.3773 107.747 92.4913C108.165 92.6054 108.554 92.8064 108.889 93.0813C108.994 93.1688 109.094 93.2635 109.186 93.3649L121.275 91.6058L121.948 82.5195C121.999 81.8224 122.326 81.1743 122.855 80.7178C123.385 80.2613 124.074 80.0338 124.772 80.0853C125.469 80.1368 126.118 80.4631 126.574 80.9924C127.031 81.5217 127.259 82.2107 127.207 82.9078C127.206 82.9239 127.205 82.9401 127.203 82.9562L126.025 95.706L126.019 95.7344C125.866 96.2245 125.558 96.6521 125.142 96.9538C124.727 97.2554 124.225 97.4151 123.711 97.4091L109.492 97.1637C109.437 97.2479 109.377 97.3292 109.313 97.4072C109.038 97.7419 108.696 98.0147 108.308 98.2077C107.92 98.4008 107.495 98.5097 107.062 98.5275C106.63 98.5452 106.198 98.4712 105.795 98.3105C105.393 98.1498 105.029 97.9059 104.728 97.5948C104.666 97.5321 104.608 97.4674 104.554 97.4006C104.144 96.8962 103.904 96.2753 103.868 95.6265C103.832 94.9777 104.002 94.3342 104.354 93.7877Z" fill="#FFB7B7" style="fill:#FFB7B7;fill:color(display-p3 1.0000 0.7186 0.7186);fill-opacity:1;"/>
<path d="M128.727 171.26L125.279 171.259L123.639 157.967L128.727 157.967L128.727 171.26Z" fill="#FFB7B7" style="fill:#FFB7B7;fill:color(display-p3 1.0000 0.7186 0.7186);fill-opacity:1;"/>
<path d="M129.606 174.6L118.488 174.6V174.459C118.488 173.312 118.944 172.212 119.756 171.401C120.567 170.59 121.668 170.134 122.816 170.134H122.816L129.606 170.134L129.606 174.6Z" fill="#2F2E41" style="fill:#2F2E41;fill:color(display-p3 0.1843 0.1804 0.2549);fill-opacity:1;"/>
<path d="M152.818 168.135L149.555 169.247L143.709 157.196L148.526 155.554L152.818 168.135Z" fill="#FFB7B7" style="fill:#FFB7B7;fill:color(display-p3 1.0000 0.7186 0.7186);fill-opacity:1;"/>
<path d="M154.731 171.013L144.209 174.6L144.163 174.467C143.793 173.381 143.869 172.193 144.375 171.164C144.881 170.134 145.776 169.348 146.862 168.977L146.862 168.977L153.289 166.786L154.731 171.013Z" fill="#2F2E41" style="fill:#2F2E41;fill:color(display-p3 0.1843 0.1804 0.2549);fill-opacity:1;"/>
<path d="M132.522 55.0321C132.522 55.0321 129.09 53.8992 126.884 58.4306C124.678 62.9619 121.246 67.9463 121.246 67.9463L123.207 68.3995C123.207 68.3995 123.697 65.2275 124.923 64.7744L124.433 68.8526C124.433 68.8526 139.141 73.6105 145.759 68.3995L145.514 66.8135C145.514 66.8135 146.494 67.0401 146.494 68.3995L147.23 67.7198C147.23 67.7198 146.494 66.3604 144.288 64.5479C142.84 63.3582 142.343 61.0949 142.172 59.6798C142.036 58.4818 141.522 57.3581 140.704 56.4718C139.238 54.9013 136.567 53.2321 132.522 55.0321Z" fill="#2F2E41" style="fill:#2F2E41;fill:color(display-p3 0.1843 0.1804 0.2549);fill-opacity:1;"/>
<path d="M133.788 70.8638C137.249 70.8638 140.056 68.0588 140.056 64.5988C140.056 61.1387 137.249 58.3337 133.788 58.3337C130.326 58.3337 127.52 61.1387 127.52 64.5988C127.52 68.0588 130.326 70.8638 133.788 70.8638Z" fill="#FFB7B7" style="fill:#FFB7B7;fill:color(display-p3 1.0000 0.7186 0.7186);fill-opacity:1;"/>
<path d="M125.43 76.0225L124.29 75.6428C124.29 75.6428 122.011 76.5921 122.011 78.3007C122.011 80.0093 121.631 86.8439 121.631 86.8439L126.759 87.4135L125.43 76.0225Z" fill="#CBCBCB" style="fill:#CBCBCB;fill:color(display-p3 0.7961 0.7961 0.7961);fill-opacity:1;"/>
<path d="M145.829 113.366C145.356 112.836 145.089 112.155 145.077 111.445C145.064 110.736 145.307 110.045 145.761 109.5L142.562 82.7195C142.53 82.0879 142.751 81.4698 143.175 81.0007C143.599 80.5316 144.192 80.2498 144.824 80.2173C145.456 80.1847 146.075 80.4041 146.545 80.8271C147.015 81.2502 147.298 81.8424 147.332 82.4738C147.332 82.4825 147.333 82.4913 147.333 82.5L150.195 109.309C150.299 109.413 150.394 109.525 150.481 109.644C150.711 109.961 150.875 110.32 150.966 110.701C151.057 111.082 151.071 111.477 151.009 111.864C150.947 112.25 150.809 112.621 150.604 112.955C150.398 113.288 150.129 113.578 149.812 113.807C149.779 113.831 149.746 113.854 149.712 113.876C149.344 114.119 148.927 114.278 148.491 114.341C148.055 114.404 147.61 114.37 147.189 114.241C146.663 114.082 146.191 113.778 145.829 113.366Z" fill="#FFB7B7" style="fill:#FFB7B7;fill:color(display-p3 1.0000 0.7186 0.7186);fill-opacity:1;"/>
<path d="M142.898 86.8439L148.027 86.2743C148.027 86.2743 147.647 79.4398 147.647 77.7311C147.647 76.0225 145.368 75.0732 145.368 75.0732L144.228 75.4529L142.898 86.8439Z" fill="#CBCBCB" style="fill:#CBCBCB;fill:color(display-p3 0.7961 0.7961 0.7961);fill-opacity:1;"/>
<path d="M126.19 96.3268C126.19 96.3268 121.821 104.31 121.821 113.993C121.821 123.675 121.441 168.1 121.441 168.1C121.441 168.1 127.14 170.757 130.558 167.53L133.598 118.359L145.564 166.581C145.564 166.581 151.262 167.72 153.921 165.821L148.793 132.218C148.793 132.218 146.703 100.703 141.005 98.4249C135.307 96.1467 126.19 96.3268 126.19 96.3268Z" fill="#2F2E41" style="fill:#2F2E41;fill:color(display-p3 0.1843 0.1804 0.2549);fill-opacity:1;"/>
<path d="M127.015 64.6385C129.234 63.0334 131.03 61.1847 132.219 58.9855C132.219 58.9855 136.291 63.5079 138.779 63.734C141.268 63.9601 139.005 58.3071 139.005 58.3071L134.481 57.1765L130.182 57.6288L126.789 59.89L127.015 64.6385Z" fill="#2F2E41" style="fill:#2F2E41;fill:color(display-p3 0.1843 0.1804 0.2549);fill-opacity:1;"/>
<path d="M140.056 73.9342C140.056 73.9342 140.237 73.8371 129.42 74.2309L124.893 75.4772L124.291 75.6428C124.291 75.6428 124.861 87.0337 126.38 89.1221C127.9 91.2104 127.52 92.3495 127.14 92.5394C126.76 92.7292 125.811 92.3495 126.38 93.2988C126.95 94.248 127.71 93.6785 126.95 94.248C126.19 94.8176 125.811 96.9059 125.811 96.9059L142.525 99.1841C142.525 99.1841 143.095 91.78 144.615 87.983C146.134 84.186 146.514 82.6672 146.514 82.6672L145.374 75.0733L140.056 73.9342Z" fill="#CBCBCB" style="fill:#CBCBCB;fill:color(display-p3 0.7961 0.7961 0.7961);fill-opacity:1;"/>
<path d="M108.278 41.5513H107.317V15.2326C107.317 11.1926 105.711 7.31818 102.853 4.46152C99.9951 1.60486 96.1188 6.5122e-06 92.0769 0L36.2906 0C32.2488 -1.10706e-05 28.3725 1.60483 25.5144 4.46148C22.6564 7.31813 21.0508 11.1926 21.0508 15.2325V159.619C21.0508 163.659 22.6564 167.533 25.5144 170.39C28.3724 173.247 32.2487 174.852 36.2906 174.852H92.0768C94.0782 174.852 96.0599 174.458 97.9089 173.692C99.7579 172.927 101.438 171.805 102.853 170.39C104.268 168.976 105.391 167.296 106.157 165.448C106.923 163.6 107.317 161.619 107.317 159.619V60.2854H108.278L108.278 41.5513Z" fill="#3F3D56" style="fill:#3F3D56;fill:color(display-p3 0.2471 0.2392 0.3373);fill-opacity:1;"/>
<path d="M104.073 15.3395V159.514C104.074 161.006 103.781 162.485 103.211 163.864C102.641 165.243 101.804 166.497 100.749 167.553C99.6943 168.61 98.4415 169.448 97.0624 170.021C95.6833 170.593 94.2049 170.888 92.7116 170.89H36.6372C33.6208 170.892 30.7271 169.696 28.5927 167.566C26.4583 165.435 25.258 162.545 25.2559 159.53V15.3395C25.2548 13.8467 25.5479 12.3682 26.1185 10.9886C26.6891 9.609 27.526 8.35522 28.5814 7.29887C29.6367 6.24252 30.8899 5.40429 32.2694 4.83202C33.6488 4.25976 35.1276 3.96468 36.6211 3.96363H43.437C43.1021 4.78423 42.9743 5.67456 43.0648 6.55617C43.1553 7.43778 43.4614 8.28361 43.956 9.01913C44.4506 9.75466 45.1186 10.3573 45.9012 10.774C46.6838 11.1906 47.5568 11.4085 48.4435 11.4084H80.4035C81.2902 11.4085 82.1633 11.1906 82.9458 10.774C83.7284 10.3573 84.3964 9.75466 84.891 9.01913C85.3857 8.28361 85.6917 7.43778 85.7822 6.55617C85.8727 5.67456 85.7449 4.78423 85.41 3.96363H92.6913C95.7071 3.96092 98.6005 5.15579 100.735 7.28535C102.869 9.41492 104.07 12.3048 104.073 15.3191V15.3395L104.073 15.3395Z" fill="white" style="fill:white;fill-opacity:1;"/>
<path d="M104.073 36.6697V31.7589H96.6365V4.6659C95.3735 4.1997 94.0376 3.9619 92.6913 3.96363H91.7234V31.7589H65.9293V11.4085H61.0162V31.7589H39.3983V3.96366H36.6372C35.915 3.96253 35.1943 4.03078 34.4852 4.16746V31.7589H25.2559V36.6697H34.4852V48.0285L25.256 53.3543V59.0263L34.4852 53.7006V87.4966H25.2559V92.4075H34.4852V141.27H25.2559V146.181H34.4852V170.686C35.1943 170.822 35.915 170.891 36.6372 170.89H39.3983V146.181H61.0162V170.89H65.9293V146.181H91.7234V170.89H92.6913C94.0376 170.891 95.3735 170.654 96.6365 170.187V146.181H104.073V141.27H96.6365V119.908H104.006V114.997H96.6365V92.4075H104.073V87.4966H96.6365V57.5407H104.073V52.6299H96.6365V36.6697L104.073 36.6697ZM54.1699 36.6697L54.1698 36.6698L39.3984 45.1949L39.3983 45.195V36.6697H54.1699ZM39.3983 50.8645L39.3984 50.8645L61.0162 38.3886V87.4966H39.3983V50.8645ZM39.3983 141.27V92.4075H61.0162V141.27H39.3983ZM91.7234 141.27H65.9293V119.908H91.7234V141.27ZM91.7234 114.997H65.9293V92.4075H91.7234V114.997ZM91.7234 87.4966H65.9293V57.5407H91.7234V87.4966ZM91.7234 52.6298H65.9293V36.6697H91.7234V52.6298Z" fill="#E5E5E5" style="fill:#E5E5E5;fill:color(display-p3 0.8999 0.8999 0.8999);fill-opacity:1;"/>
<path d="M108.183 52.7206C108.183 68.3155 79.9323 103.056 79.9323 103.056C79.9323 103.056 51.6816 68.3155 51.6816 52.7206C51.6816 45.2316 54.658 38.0494 59.9561 32.7539C65.2541 27.4584 72.4397 24.4834 79.9323 24.4834C87.4248 24.4834 94.6104 27.4584 99.9085 32.7539C105.206 38.0494 108.183 45.2316 108.183 52.7206Z" fill="#2E3192" style="fill:#2E3192;fill:color(display-p3 0.1804 0.1922 0.5725);fill-opacity:1;"/>
<path d="M96.638 51.4929C96.638 54.7952 95.6582 58.0234 93.8227 60.7692C91.9872 63.5149 89.3782 65.655 86.3259 66.9187C83.2735 68.1825 79.9147 68.5131 76.6743 67.8689C73.4339 67.2246 70.4574 65.6344 68.1212 63.2993C65.785 60.9642 64.1941 57.9892 63.5495 54.7503C62.9049 51.5114 63.2357 48.1543 64.5001 45.1033C65.7644 42.0524 67.9055 39.4447 70.6526 37.6101C73.3997 35.7754 76.6294 34.7961 79.9332 34.7961C82.1259 34.7951 84.2973 35.2258 86.3235 36.0636C88.3497 36.9014 90.1909 38.1298 91.7421 39.6788C93.2933 41.2279 94.524 43.0671 95.364 45.0915C96.2041 47.116 96.6369 49.2859 96.638 51.4776V51.4929Z" fill="white" style="fill:white;fill-opacity:1;"/>
<path d="M79.8737 58.084C83.3108 58.084 86.0971 55.2991 86.0971 51.8637C86.0971 48.4283 83.3108 45.6433 79.8737 45.6433C76.4367 45.6433 73.6504 48.4283 73.6504 51.8637C73.6504 55.2991 76.4367 58.084 79.8737 58.084Z" fill="#2E3192" style="fill:#2E3192;fill:color(display-p3 0.1804 0.1922 0.5725);fill-opacity:1;"/>
<path d="M88.9072 66.0708C86.2244 67.7759 83.111 68.6813 79.9318 68.6809C76.7525 68.6804 73.6393 67.7742 70.957 66.0683C71.5149 64.1192 72.6927 62.4048 74.3122 61.1844C75.9317 59.9639 77.9048 59.3039 79.933 59.3042C81.9613 59.3045 83.9342 59.965 85.5534 61.1859C87.1726 62.4068 88.3499 64.1215 88.9072 66.0708Z" fill="#2E3192" style="fill:#2E3192;fill:color(display-p3 0.1804 0.1922 0.5725);fill-opacity:1;"/>
<path d="M79.9318 123.436C84.1376 123.436 87.5472 120.029 87.5472 115.825C87.5472 111.621 84.1376 108.213 79.9318 108.213C75.7259 108.213 72.3164 111.621 72.3164 115.825C72.3164 120.029 75.7259 123.436 79.9318 123.436Z" fill="#2E3192" style="fill:#2E3192;fill:color(display-p3 0.1804 0.1922 0.5725);fill-opacity:1;"/>
<path d="M175.782 175H0.218362C0.160449 175 0.104908 174.974 0.0639568 174.928C0.023006 174.882 0 174.819 0 174.754C0 174.689 0.023006 174.627 0.0639568 174.581C0.104908 174.535 0.160449 174.509 0.218362 174.509H175.782C175.84 174.509 175.895 174.535 175.936 174.581C175.977 174.627 176 174.689 176 174.754C176 174.819 175.977 174.882 175.936 174.928C175.895 174.974 175.84 175 175.782 175Z" fill="#CBCBCB" style="fill:#CBCBCB;fill:color(display-p3 0.7961 0.7961 0.7961);fill-opacity:1;"/>
</svg>
