<svg width="32" height="32" viewBox="0 0 32 32" fill="none" xmlns="http://www.w3.org/2000/svg">
<path d="M21.6389 8.78467C19.1976 8.78467 18.1659 9.94959 16.4658 9.94959C14.7226 9.94959 13.393 8.79314 11.2775 8.79314C9.20681 8.79314 6.99866 10.0574 5.5964 12.211C3.62741 15.248 3.96163 20.9679 7.15064 25.8407C8.29134 27.5851 9.8147 29.5413 11.8127 29.5625H11.8491C13.5856 29.5625 14.1014 28.4255 16.4912 28.4121H16.5275C18.8816 28.4121 19.3539 29.5559 21.0831 29.5559H21.1194C23.1174 29.5347 24.7225 27.3671 25.8633 25.6294C26.6843 24.3797 26.9894 23.7525 27.6191 22.3387C23.006 20.5877 22.265 14.048 26.8272 11.5408C25.4346 9.79701 23.4777 8.78709 21.6328 8.78709L21.6389 8.78467Z" fill="#2D3748"/>
<path d="M21.1018 2.43896C19.6487 2.53766 17.9534 3.46281 16.9604 4.67072C16.0595 5.76541 15.3184 7.38928 15.609 8.9641H15.7253C17.2728 8.9641 18.8567 8.03228 19.7819 6.8383C20.6731 5.70185 21.3488 4.09129 21.1018 2.43896Z" fill="#2D3748"/>
</svg>
