<svg width="24" height="24" viewBox="0 0 24 24" fill="none" xmlns="http://www.w3.org/2000/svg">
<path d="M21.64 17.37C20.9971 16.7969 20.4343 16.1399 19.9667 15.4167C19.4562 14.4184 19.1502 13.3282 19.0667 12.21V8.91667C19.0711 7.16041 18.434 5.46298 17.2752 4.14332C16.1163 2.82365 14.5154 1.97257 12.7733 1.75V0.89C12.7733 0.653957 12.6796 0.427582 12.5127 0.260675C12.3458 0.0937677 12.1194 0 11.8833 0C11.6473 0 11.4209 0.0937677 11.254 0.260675C11.0871 0.427582 10.9933 0.653957 10.9933 0.89V1.76333C9.26684 2.00195 7.68531 2.85817 6.54169 4.1734C5.39806 5.48864 4.76982 7.17376 4.77333 8.91667V12.21C4.68984 13.3282 4.38385 14.4184 3.87333 15.4167C3.41392 16.1382 2.86013 16.7952 2.22667 17.37C2.15555 17.4325 2.09856 17.5094 2.05948 17.5956C2.0204 17.6818 2.00012 17.7753 2 17.87V18.7767C2 18.9535 2.07024 19.123 2.19526 19.2481C2.32029 19.3731 2.48986 19.4433 2.66667 19.4433H21.2C21.3768 19.4433 21.5464 19.3731 21.6714 19.2481C21.7964 19.123 21.8667 18.9535 21.8667 18.7767V17.87C21.8665 17.7753 21.8463 17.6818 21.8072 17.5956C21.7681 17.5094 21.7111 17.4325 21.64 17.37ZM3.38667 18.11C4.00694 17.5108 4.55307 16.8393 5.01333 16.11C5.65641 14.9043 6.03162 13.574 6.11333 12.21V8.91667C6.08689 8.13536 6.21795 7.35672 6.4987 6.62711C6.77944 5.89751 7.20414 5.23186 7.7475 4.6698C8.29086 4.10775 8.94176 3.66078 9.66145 3.35552C10.3811 3.05025 11.1549 2.89294 11.9367 2.89294C12.7184 2.89294 13.4922 3.05025 14.2119 3.35552C14.9316 3.66078 15.5825 4.10775 16.1258 4.6698C16.6692 5.23186 17.0939 5.89751 17.3746 6.62711C17.6554 7.35672 17.7864 8.13536 17.76 8.91667V12.21C17.8417 13.574 18.2169 14.9043 18.86 16.11C19.3203 16.8393 19.8664 17.5108 20.4867 18.11H3.38667Z" fill="#FFA412"/>
<path d="M11.9996 22.8533C12.4195 22.8436 12.8225 22.6857 13.1373 22.4075C13.4521 22.1294 13.6583 21.7488 13.7196 21.3333H10.2129C10.2759 21.7601 10.4918 22.1496 10.8204 22.4292C11.1491 22.7088 11.5681 22.8595 11.9996 22.8533Z" fill="#FFA412"/>
</svg>
