<svg width="76" height="76" viewBox="0 0 76 76" fill="none" xmlns="http://www.w3.org/2000/svg">
<rect x="1.00037" y="1" width="74" height="74" rx="14.5" stroke="#E2E8F0"/>
<path d="M49.4802 37.8819L49.3742 37.4323H39.6036V41.5677H45.4414C44.8353 44.4458 42.0228 45.9608 39.7255 45.9608C38.0539 45.9608 36.2919 45.2576 35.1256 44.1275C34.5103 43.5217 34.0205 42.8005 33.6843 42.0051C33.3481 41.2098 33.172 40.356 33.1663 39.4925C33.1663 37.7506 33.9491 36.0083 35.0881 34.8622C36.2272 33.7161 37.9475 33.0748 39.658 33.0748C41.6169 33.0748 43.0208 34.115 43.5458 34.5894L46.4844 31.6663C45.6223 30.9088 43.2542 29 39.5633 29C36.7156 29 33.9852 30.0908 31.9892 32.0802C30.0195 34.0391 29 36.8717 29 39.5C29 42.1283 29.9647 44.8194 31.8734 46.7937C33.913 48.8994 36.8014 50 39.7756 50C42.4817 50 45.0467 48.9397 46.8748 47.0159C48.672 45.1222 49.6016 42.5019 49.6016 39.755C49.6016 38.5986 49.4853 37.9119 49.4802 37.8819Z" fill="#2D3748"/>
</svg>
